<svg fill="none" height="12" viewBox="0 0 12 12" width="12" xmlns="http://www.w3.org/2000/svg"><path clip-rule="evenodd" d="m.292893 1.70711c-.390524-.39053-.390524-1.023692 0-1.414217.390525-.3905241 1.023687-.3905241 1.414217 0l4.29289 4.292897 4.2929-4.292897c.3905-.3905241 1.0237-.3905241 1.4142 0 .3905.390525.3905 1.023687 0 1.414217l-4.29289 4.29289 4.29289 4.2929c.3905.3905.3905 1.0237 0 1.4142s-1.0237.3905-1.4142 0l-4.2929-4.29289-4.29289 4.29289c-.39053.3905-1.023692.3905-1.414216 0-.3905246-.3905-.3905246-1.0237 0-1.4142l4.292896-4.2929z" fill="currentColor" fill-rule="evenodd"/></svg>