<svg fill="none" height="30" viewBox="0 0 40 30" width="40" xmlns="http://www.w3.org/2000/svg"><path d="m28.3333 0c6.0121 0 8.1492 3.72154 10.1052 9.88501 1.2357 3.89389 1.5615 7.60559 1.5615 12.28889 0 4.701-1.8255 7.8261-5.3333 7.8261-2.3149 0-3.5048-1.1636-5.7725-4.4903-1.733-2.5423-3.8942-3.843-5.5609-3.843h-3.3333c-2.0137-.0003-3.2853 0-3.3333 0-1.6667-.0003-3.9211 1.4393-5.557 3.8395-2.26964 3.3302-3.4593 4.4938-5.77637 4.4938-3.50787 0-5.33333-3.1251-5.33333-7.8261 0-1.9092.0377152-3.258.192371-5.0231.227893-2.6009.663152-5.0453 1.367539-7.26567 1.95535-6.16359 4.09292-9.88513 10.10679-9.88513 3.3333 0 3.3333 1.66667 8.3333 1.66667s5-1.66667 8.3333-1.66667zm-16.6666 6.66667c-.9089 0-1.6478.72742-1.6663 1.63179l-.0004.03487v1.66656l-1.66667.00011c-.92047 0-1.66666.7462-1.66666 1.6667 0 .9088.72742 1.6477 1.63179 1.6663l.03487.0003 1.66667-.0001v1.6668c0 .9205.7462 1.6667 1.6667 1.6667.9088 0 1.6477-.7275 1.6663-1.6318l.0003-.0349v-1.6668l1.6667.0001c.9205 0 1.6667-.7462 1.6667-1.6666 0-.9089-.7275-1.6478-1.6318-1.6663l-.0349-.0004-1.6667-.00011v-1.66656c0-.92047-.7462-1.66666-1.6666-1.66666zm16.6666 6.66663c-.9204 0-1.6666.7462-1.6666 1.6667s.7462 1.6667 1.6666 1.6667c.9205 0 1.6667-.7462 1.6667-1.6667s-.7462-1.6667-1.6667-1.6667zm3.3334-3.3333c-.9205 0-1.6667.7462-1.6667 1.6667 0 .9204.7462 1.6666 1.6667 1.6666.9204 0 1.6666-.7462 1.6666-1.6666 0-.9205-.7462-1.6667-1.6666-1.6667zm-6.6667 0c-.9205 0-1.6667.7462-1.6667 1.6667 0 .9204.7462 1.6666 1.6667 1.6666s1.6667-.7462 1.6667-1.6666c0-.9205-.7462-1.6667-1.6667-1.6667zm3.3333-3.33333c-.9204 0-1.6666.74619-1.6666 1.66666 0 .92048.7462 1.66667 1.6666 1.66667.9205 0 1.6667-.74619 1.6667-1.66667 0-.92047-.7462-1.66666-1.6667-1.66666z" fill="#ccc"/></svg>