<svg fill="none" height="24" viewBox="0 0 24 24" width="24" xmlns="http://www.w3.org/2000/svg"><path d="m12 24c-.6904 0-1.25-.5596-1.25-1.25s.5596-1.25 1.25-1.25c5.2467 0 9.5-4.2533 9.5-9.5 0-5.24671-4.2533-9.5-9.5-9.5-5.24671 0-9.5 4.25329-9.5 9.5 0 1.1009.18681 2.1746.5479 3.1883.23163.6504-.10778 1.3654-.75812 1.597-.65033.2316-1.365314-.1078-1.596953-.7581-.456665-1.2821-.692827-2.6394-.692827-4.0272 0-6.62742 5.37258-12 12-12 6.6274 0 12 5.37258 12 12 0 6.6274-5.3726 12-12 12z" fill="#ccc"/></svg>