<svg height="16" viewBox="0 0 14 16" width="14" xmlns="http://www.w3.org/2000/svg"><path clip-rule="evenodd" d="m11.3401 6c.128 0 .25.052.337.145.088.093.134.217.127.344-.089 1.616-.367 6.679-.367 6.679 0 1.104-.914 1.84-2.01804 1.84h-4.968c-1.103 0-2.017-.686-2.017-1.79 0 0-.331-5.096-.436-6.724-.009-.128.037-.254.124-.347.088-.094.211-.147.339-.147zm-10.3091-1c-.292.001-.529-.234-.531-.525.001-.004.001-.008.001-.012 0-.414.251-.769.608-.922.455-.241 1.681-.439 3.292-.542v-1.589c0-.778.632-1.41 1.41-1.41h2.184c.778 0 1.41.632 1.41 1.41v1.589c1.611.103 2.837.301 3.292.542.357.153.608.508.608.922 0 .297-.24.537-.537.537-1.852 0-9.902 0-11.737 0zm6.57095-3.40698h-1.398c-.166 0-.301.135-.301.301v1.041c.325-.007.659-.011 1-.011s.675.004 1 .011v-1.041c0-.166-.135-.301-.301-.301z" fill="#999" fill-rule="evenodd"/></svg>