<svg fill="none" height="40" viewBox="0 0 40 40" width="40" xmlns="http://www.w3.org/2000/svg"><circle cx="20" cy="20" fill="#28c75d" r="20"/><path clip-rule="evenodd" d="m17 25.5c0 .828-.672 1.5-1.5 1.5s-1.5-.672-1.5-1.5v-2.414c-.896-.519-1.499-1.488-1.499-2.597v-1.014c0-1.655 1.344-3 3-3h1.499.09.632c1.317-.014 2.389-.198 3.905-2.108.664-.859 1.485-1.367 2.373-1.367 2.208 0 4 3.137 4 7s-1.792 7-4 7c-.891 0-1.715-.511-2.381-1.376-1.778-2.237-2.946-2.097-4.619-2.1zm5.186-3.529c.318 1.597 1.011 2.706 1.814 2.706 1.104 0 2-2.096 2-4.677s-.896-4.677-2-4.677c-.796 0-1.484 1.09-1.806 2.665 1.013.098 1.806.953 1.806 1.991 0 1.041-.797 1.898-1.814 1.992zm-6.186-2.971c.552 0 1 .448 1 1s-.448 1-1 1-1-.448-1-1 .448-1 1-1z" fill="#fff" fill-rule="evenodd"/></svg>